<svg width="1200" height="630" viewBox="0 0 1200 630" fill="none" xmlns="http://www.w3.org/2000/svg" role="img" aria-label="LIDU Focus System social preview card">
  <defs>
    <linearGradient id="bg" x1="120" y1="40" x2="1080" y2="590" gradientUnits="userSpaceOnUse">
      <stop offset="0" stop-color="#0A44B2"/>
      <stop offset="0.55" stop-color="#062F8A"/>
      <stop offset="1" stop-color="#05286F"/>
    </linearGradient>
    <radialGradient id="glow1" cx="0" cy="0" r="1" gradientUnits="userSpaceOnUse" gradientTransform="translate(250 140) rotate(25) scale(320 220)">
      <stop stop-color="#C7E0FF" stop-opacity="0.35"/>
      <stop offset="1" stop-color="#C7E0FF" stop-opacity="0"/>
    </radialGradient>
    <radialGradient id="glow2" cx="0" cy="0" r="1" gradientUnits="userSpaceOnUse" gradientTransform="translate(950 500) rotate(-10) scale(300 180)">
      <stop stop-color="#9BC2FF" stop-opacity="0.22"/>
      <stop offset="1" stop-color="#9BC2FF" stop-opacity="0"/>
    </radialGradient>
  </defs>

  <rect width="1200" height="630" fill="url(#bg)"/>
  <rect width="1200" height="630" fill="url(#glow1)"/>
  <rect width="1200" height="630" fill="url(#glow2)"/>

  <g opacity="0.18" stroke="#EAF3FF" stroke-width="1">
    <path d="M0 90H1200M0 180H1200M0 270H1200M0 360H1200M0 450H1200M0 540H1200"/>
    <path d="M90 0V630M180 0V630M270 0V630M360 0V630M450 0V630M540 0V630M630 0V630M720 0V630M810 0V630M900 0V630M990 0V630M1080 0V630"/>
  </g>

  <g fill="#F4721E" transform="translate(96 128)">
    <rect width="34" height="184" x="0" y="0" rx="8"/>
    <rect width="34" height="184" x="141" y="0" rx="8"/>
    <rect width="34" height="216" x="47" y="0" rx="8"/>
    <rect width="34" height="216" x="94" y="0" rx="8"/>
  </g>

  <text x="320" y="210" fill="#FFFFFF" font-family="IBM Plex Mono, Courier New, monospace" font-size="66" font-weight="700" letter-spacing="2">LIDU FOCUS SYSTEM</text>
  <text x="320" y="286" fill="#FFD8BD" font-family="IBM Plex Mono, Courier New, monospace" font-size="34" font-weight="700" letter-spacing="1">Ambient Soundscapes, Binaural Beats, Focus Flow Timer</text>

  <rect x="320" y="330" width="640" height="2" fill="#FFFFFF" fill-opacity="0.32"/>

  <text x="320" y="398" fill="#E8F1FF" font-family="IBM Plex Mono, Courier New, monospace" font-size="28">Deep Focus • Flow State • Energy Boost</text>
  <text x="320" y="448" fill="#E8F1FF" font-family="IBM Plex Mono, Courier New, monospace" font-size="28">Rain/Ocean/Wind/Cafe • Solfeggio Overlay</text>
  <text x="320" y="498" fill="#E8F1FF" font-family="IBM Plex Mono, Courier New, monospace" font-size="28">Browser-based, free, and distraction-free</text>

  <rect x="320" y="538" width="310" height="58" rx="8" fill="#F4721E"/>
  <text x="348" y="575" fill="#05286F" font-family="IBM Plex Mono, Courier New, monospace" font-size="30" font-weight="700">lidu-system.de</text>
</svg>
